<svg xmlns="http://www.w3.org/2000/svg" xmlns:xlink="http://www.w3.org/1999/xlink" viewBox="0 0 550 480" width="550" height="480" preserveAspectRatio="xMidYMid meet" style="width: 100%; height: 100%; transform: translate3d(0px, 0px, 0px); content-visibility: visible;"><defs><clipPath id="__lottie_element_667"><rect width="550" height="480" x="0" y="0"></rect></clipPath><linearGradient id="__lottie_element_686" spreadMethod="pad" gradientUnits="userSpaceOnUse" x1="71" y1="86" x2="201" y2="0"><stop offset="0%" stop-color="rgb(118,93,243)"></stop><stop offset="50%" stop-color="rgb(142,121,248)"></stop><stop offset="100%" stop-color="rgb(165,148,253)"></stop></linearGradient><linearGradient id="__lottie_element_699" spreadMethod="pad" gradientUnits="userSpaceOnUse" x1="-65.38300323486328" y1="-28.136999130249023" x2="-20.426000595092773" y2="15.312000274658203"><stop offset="0%" stop-color="rgb(255,255,255)" stop-opacity="0.10000000149011612"></stop><stop offset="50%" stop-color="rgb(128,128,128)" stop-opacity="0.05000000074505806"></stop><stop offset="100%" stop-color="rgb(0,0,0)" stop-opacity="0"></stop></linearGradient><radialGradient id="__lottie_element_703" spreadMethod="pad" gradientUnits="userSpaceOnUse" cx="-163.38699340820312" cy="-175.3280029296875" r="359.15068752568754" fx="-163.38699340820312" fy="-175.3280029296875"><stop offset="0%" stop-color="rgb(26,26,26)"></stop><stop offset="50%" stop-color="rgb(21,21,21)"></stop><stop offset="100%" stop-color="rgb(16,16,16)"></stop></radialGradient><linearGradient id="__lottie_element_704" spreadMethod="pad" gradientUnits="userSpaceOnUse" x1="-176" y1="-150" x2="29" y2="17"><stop offset="0%" stop-color="rgb(255,255,255)" stop-opacity="0.10000000149011612"></stop><stop offset="50%" stop-color="rgb(128,128,128)" stop-opacity="0.05000000074505806"></stop><stop offset="100%" stop-color="rgb(0,0,0)" stop-opacity="0"></stop></linearGradient></defs><g clip-path="url(#__lottie_element_667)"><g transform="matrix(1,0,0,1,276.1929931640625,241.0959930419922)" opacity="1" style="display: block;"><g opacity="1" transform="matrix(1,0,0,1,-1.1929999589920044,-1.0959999561309814)"><path fill="url(#__lottie_element_703)" fill-opacity="1" d=" M275,-198 C275,-198 275,198 275,198 C275,221.17979431152344 256.1798095703125,240 233,240 C233,240 -233,240 -233,240 C-256.1798095703125,240 -275,221.17979431152344 -275,198 C-275,198 -275,-198 -275,-198 C-275,-221.17979431152344 -256.1798095703125,-240 -233,-240 C-233,-240 233,-240 233,-240 C256.1798095703125,-240 275,-221.17979431152344 275,-198z"></path><path stroke="url(#__lottie_element_704)" stroke-linecap="butt" stroke-linejoin="miter" fill-opacity="0" stroke-miterlimit="4" stroke-opacity="1" stroke-width="2" d=" M275,-198 C275,-198 275,198 275,198 C275,221.17979431152344 256.1798095703125,240 233,240 C233,240 -233,240 -233,240 C-256.1798095703125,240 -275,221.17979431152344 -275,198 C-275,198 -275,-198 -275,-198 C-275,-221.17979431152344 -256.1798095703125,-240 -233,-240 C-233,-240 233,-240 233,-240 C256.1798095703125,-240 275,-221.17979431152344 275,-198z"></path></g></g><g transform="matrix(1,0,0,1,276.1929931640625,241.0959930419922)" opacity="1" style="display: block;"><g opacity="1" transform="matrix(1,0,0,1,142.7830047607422,-183.58799743652344)"><path fill="rgb(30,30,30)" fill-opacity="0.5" d=" M100,0 C100,0 100,0 100,0 C100,16.55699920654297 86.55699920654297,30 70,30 C70,30 -70,30 -70,30 C-86.55699920654297,30 -100,16.55699920654297 -100,0 C-100,0 -100,0 -100,0 C-100,-16.55699920654297 -86.55699920654297,-30 -70,-30 C-70,-30 70,-30 70,-30 C86.55699920654297,-30 100,-16.55699920654297 100,0z"></path><path stroke="url(#__lottie_element_699)" stroke-linecap="butt" stroke-linejoin="miter" fill-opacity="0" stroke-miterlimit="4" stroke-opacity="1" stroke-width="2" d=" M100,0 C100,0 100,0 100,0 C100,16.55699920654297 86.55699920654297,30 70,30 C70,30 -70,30 -70,30 C-86.55699920654297,30 -100,16.55699920654297 -100,0 C-100,0 -100,0 -100,0 C-100,-16.55699920654297 -86.55699920654297,-30 -70,-30 C-70,-30 70,-30 70,-30 C86.55699920654297,-30 100,-16.55699920654297 100,0z"></path></g></g><g fill="rgb(131,131,131)" font-size="22" font-family="Labil Grotesk Trial" font-style="normal" font-weight="400" aria-label="Last 28 days" transform="matrix(1,0,0,1,434.5,71)" opacity="1" style="display: block;"><g stroke-linecap="butt" stroke-linejoin="round" stroke-miterlimit="4" transform="matrix(1,0,0,1,-90.5,-5.600067138671875)" opacity="1" style="display: inherit;"><g><g transform="matrix(1,0,0,1,0,0)" opacity="1" style="display: block;"><path d=" M1.68,0 C1.68,0 11.73,0 11.73,0 C11.73,0 11.73,-1.88 11.73,-1.88 C11.73,-1.88 3.81,-1.88 3.81,-1.88 C3.81,-1.88 3.81,-15.78 3.81,-15.78 C3.81,-15.78 1.68,-15.78 1.68,-15.78 C1.68,-15.78 1.68,0 1.68,0z"></path><g opacity="1" transform="matrix(0.2199999988079071,0,0,0.2199999988079071,0,0)"></g></g></g></g><g stroke-linecap="butt" stroke-linejoin="round" stroke-miterlimit="4" transform="matrix(1,0,0,1,-78.00180053710938,-5.600067138671875)" opacity="1" style="display: inherit;"><g><g transform="matrix(1,0,0,1,0,0)" opacity="1" style="display: block;"><path d=" M3.06,-2.95 C3.06,-4.14 4.14,-4.87 6.43,-5.14 C6.43,-5.14 8.24,-5.34 8.24,-5.34 C8.24,-5.34 8.24,-4.48 8.24,-4.48 C8.24,-2.26 6.58,-1.2 5.12,-1.2 C4.03,-1.2 3.06,-1.77 3.06,-2.95z M4.48,0.24 C6.11,0.24 7.84,-0.64 8.33,-2.28 C8.33,-1.13 8.42,-0.49 8.53,0 C8.53,0 10.59,0 10.59,0 C10.44,-0.78 10.3,-1.97 10.3,-3.17 C10.3,-3.17 10.3,-6.93 10.3,-6.93 C10.3,-9.95 7.98,-11.43 5.65,-11.39 C3.37,-11.37 1.06,-10.04 0.86,-7.31 C0.86,-7.31 2.88,-7.29 2.88,-7.29 C3.06,-8.93 4.34,-9.73 5.61,-9.73 C6.93,-9.73 8.22,-8.86 8.22,-7.05 C8.22,-7.05 8.22,-6.65 8.22,-6.65 C8.22,-6.65 6.2,-6.45 6.2,-6.45 C2.66,-6.09 0.97,-4.83 0.97,-2.81 C0.97,-0.89 2.55,0.24 4.48,0.24z"></path><g opacity="1" transform="matrix(0.2199999988079071,0,0,0.2199999988079071,0,0)"></g></g></g></g><g stroke-linecap="butt" stroke-linejoin="round" stroke-miterlimit="4" transform="matrix(1,0,0,1,-66.53980255126953,-5.600067138671875)" opacity="1" style="display: inherit;"><g><g transform="matrix(1,0,0,1,0,0)" opacity="1" style="display: block;"><path d=" M5.56,0.38 C8.04,0.38 9.93,-0.93 9.93,-3.06 C9.93,-4.72 8.77,-5.78 6.51,-6.27 C6.51,-6.27 5.05,-6.65 5.05,-6.65 C4.03,-6.91 3.5,-7.4 3.5,-8.2 C3.5,-9.26 4.43,-9.95 5.67,-9.95 C7.16,-9.95 8.24,-8.93 8.37,-7.49 C8.37,-7.49 10.28,-7.56 10.28,-7.56 C10.15,-9.88 8.26,-11.45 5.65,-11.45 C3.21,-11.45 1.51,-10.08 1.51,-8 C1.51,-6.34 2.57,-5.25 4.63,-4.79 C4.63,-4.79 6.09,-4.43 6.09,-4.43 C7.33,-4.12 7.87,-3.61 7.87,-2.81 C7.87,-1.71 6.82,-1.11 5.56,-1.11 C3.97,-1.11 2.84,-2.08 2.7,-3.57 C2.7,-3.57 0.78,-3.52 0.78,-3.52 C0.89,-1.2 2.84,0.38 5.56,0.38z"></path><g opacity="1" transform="matrix(0.2199999988079071,0,0,0.2199999988079071,0,0)"></g></g></g></g><g stroke-linecap="butt" stroke-linejoin="round" stroke-miterlimit="4" transform="matrix(1,0,0,1,-55.58380126953125,-5.600067138671875)" opacity="1" style="display: inherit;"><g><g transform="matrix(1,0,0,1,0,0)" opacity="1" style="display: block;"><path d=" M5.92,0.13 C6.38,0.13 6.85,0.04 7.29,-0.11 C7.29,-0.11 7.25,-1.86 7.25,-1.86 C6.96,-1.75 6.65,-1.68 6.36,-1.68 C5.56,-1.68 4.9,-2.17 4.9,-3.52 C4.9,-3.52 4.9,-9.31 4.9,-9.31 C4.9,-9.31 7.87,-9.31 7.87,-9.31 C7.87,-9.31 7.87,-11.06 7.87,-11.06 C7.87,-11.06 4.9,-11.06 4.9,-11.06 C4.9,-11.06 4.9,-13.83 4.9,-13.83 C4.9,-13.83 2.81,-13.83 2.81,-13.83 C2.81,-13.83 2.81,-11.06 2.81,-11.06 C2.81,-11.06 0.73,-11.06 0.73,-11.06 C0.73,-11.06 0.73,-9.31 0.73,-9.31 C0.73,-9.31 2.81,-9.31 2.81,-9.31 C2.81,-9.31 2.81,-3.39 2.81,-3.39 C2.81,-0.82 4.32,0.13 5.92,0.13z"></path><g opacity="1" transform="matrix(0.2199999988079071,0,0,0.2199999988079071,0,0)"></g></g></g></g><g stroke-linecap="butt" stroke-linejoin="round" stroke-miterlimit="4" transform="matrix(1,0,0,1,-47.17980194091797,-5.600067138671875)" opacity="1" style="display: inherit;"><g><g style="display: none;"></g></g></g><g stroke-linecap="butt" stroke-linejoin="round" stroke-miterlimit="4" transform="matrix(1,0,0,1,-42.7578010559082,-5.600067138671875)" opacity="1" style="display: inherit;"><g><g transform="matrix(1,0,0,1,0,0)" opacity="1" style="display: block;"><path d=" M1.37,-1.53 C1.37,-1.53 1.37,0 1.37,0 C1.37,0 11.17,0 11.17,0 C11.17,0 11.17,-1.71 11.17,-1.71 C11.17,-1.71 4.08,-1.71 4.08,-1.71 C9.24,-5.52 11.52,-8 11.52,-11.03 C11.52,-13.94 9.44,-15.95 6.36,-15.95 C3.1,-15.95 1.02,-13.63 1.02,-10.32 C1.02,-10.32 3.12,-10.32 3.12,-10.32 C3.12,-12.54 4.41,-14.09 6.31,-14.09 C8.11,-14.09 9.39,-12.78 9.39,-10.92 C9.39,-8.4 7.13,-6.4 1.37,-1.53z"></path><g opacity="1" transform="matrix(0.2199999988079071,0,0,0.2199999988079071,0,0)"></g></g></g></g><g stroke-linecap="butt" stroke-linejoin="round" stroke-miterlimit="4" transform="matrix(1,0,0,1,-30.12980079650879,-5.600067138671875)" opacity="1" style="display: inherit;"><g><g transform="matrix(1,0,0,1,0,0)" opacity="1" style="display: block;"><path d=" M3.5,-4.14 C3.5,-5.8 4.79,-6.96 6.69,-6.96 C8.62,-6.96 9.9,-5.8 9.9,-4.14 C9.9,-2.44 8.62,-1.26 6.69,-1.26 C4.79,-1.26 3.5,-2.44 3.5,-4.14z M3.3,-11.34 C3.3,-13.07 4.7,-14.25 6.69,-14.25 C8.71,-14.25 10.1,-13.07 10.1,-11.34 C10.1,-9.66 8.71,-8.51 6.69,-8.51 C4.7,-8.51 3.3,-9.66 3.3,-11.34z M6.69,0.44 C9.79,0.44 11.92,-1.4 11.92,-3.9 C11.92,-5.83 10.7,-7.22 8.91,-7.6 C10.88,-8.04 12.21,-9.57 12.21,-11.52 C12.21,-14.05 9.93,-15.95 6.69,-15.95 C3.48,-15.95 1.2,-14.05 1.2,-11.52 C1.2,-9.57 2.53,-8.04 4.5,-7.6 C2.7,-7.22 1.46,-5.83 1.46,-3.9 C1.46,-1.4 3.61,0.44 6.69,0.44z"></path><g opacity="1" transform="matrix(0.2199999988079071,0,0,0.2199999988079071,0,0)"></g></g></g></g><g stroke-linecap="butt" stroke-linejoin="round" stroke-miterlimit="4" transform="matrix(1,0,0,1,-16.775800704956055,-5.600067138671875)" opacity="1" style="display: inherit;"><g><g style="display: none;"></g></g></g><g stroke-linecap="butt" stroke-linejoin="round" stroke-miterlimit="4" transform="matrix(1,0,0,1,-12.353801727294922,-5.600067138671875)" opacity="1" style="display: inherit;"><g><g transform="matrix(1,0,0,1,0,0)" opacity="1" style="display: block;"><path d=" M3.04,-5.54 C3.04,-7.91 4.52,-9.62 6.56,-9.62 C8.62,-9.62 10.06,-7.95 10.06,-5.54 C10.06,-3.1 8.62,-1.44 6.56,-1.44 C4.52,-1.44 3.04,-3.17 3.04,-5.54z M6.03,0.29 C7.75,0.29 9.13,-0.51 9.95,-1.91 C9.95,-1.91 9.95,0 9.95,0 C9.95,0 12.05,0 12.05,0 C12.05,0 12.05,-2.37 12.05,-2.37 C12.05,-2.37 12.05,-15.51 12.05,-15.51 C12.05,-15.51 9.95,-15.51 9.95,-15.51 C9.95,-15.51 9.95,-9.17 9.95,-9.17 C9.13,-10.55 7.75,-11.34 6.03,-11.34 C3.06,-11.34 0.91,-8.93 0.91,-5.54 C0.91,-2.13 3.06,0.29 6.03,0.29z"></path><g opacity="1" transform="matrix(0.2199999988079071,0,0,0.2199999988079071,0,0)"></g></g></g></g><g stroke-linecap="butt" stroke-linejoin="round" stroke-miterlimit="4" transform="matrix(1,0,0,1,1.0221986770629883,-5.600067138671875)" opacity="1" style="display: inherit;"><g><g transform="matrix(1,0,0,1,0,0)" opacity="1" style="display: block;"><path d=" M3.06,-2.95 C3.06,-4.14 4.14,-4.87 6.43,-5.14 C6.43,-5.14 8.24,-5.34 8.24,-5.34 C8.24,-5.34 8.24,-4.48 8.24,-4.48 C8.24,-2.26 6.58,-1.2 5.12,-1.2 C4.03,-1.2 3.06,-1.77 3.06,-2.95z M4.48,0.24 C6.11,0.24 7.84,-0.64 8.33,-2.28 C8.33,-1.13 8.42,-0.49 8.53,0 C8.53,0 10.59,0 10.59,0 C10.44,-0.78 10.3,-1.97 10.3,-3.17 C10.3,-3.17 10.3,-6.93 10.3,-6.93 C10.3,-9.95 7.98,-11.43 5.65,-11.39 C3.37,-11.37 1.06,-10.04 0.86,-7.31 C0.86,-7.31 2.88,-7.29 2.88,-7.29 C3.06,-8.93 4.34,-9.73 5.61,-9.73 C6.93,-9.73 8.22,-8.86 8.22,-7.05 C8.22,-7.05 8.22,-6.65 8.22,-6.65 C8.22,-6.65 6.2,-6.45 6.2,-6.45 C2.66,-6.09 0.97,-4.83 0.97,-2.81 C0.97,-0.89 2.55,0.24 4.48,0.24z"></path><g opacity="1" transform="matrix(0.2199999988079071,0,0,0.2199999988079071,0,0)"></g></g></g></g><g stroke-linecap="butt" stroke-linejoin="round" stroke-miterlimit="4" transform="matrix(1,0,0,1,12.484200477600098,-5.600067138671875)" opacity="1" style="display: inherit;"><g><g transform="matrix(1,0,0,1,0,0)" opacity="1" style="display: block;"><path d=" M1.15,2.61 C1.15,2.61 1.15,4.39 1.15,4.39 C3.72,5.03 5.74,3.81 6.98,0.8 C6.98,0.8 11.94,-11.06 11.94,-11.06 C11.94,-11.06 9.82,-11.06 9.82,-11.06 C9.82,-11.06 6.43,-2.64 6.43,-2.64 C6.43,-2.64 2.75,-11.06 2.75,-11.06 C2.75,-11.06 0.53,-11.06 0.53,-11.06 C0.53,-11.06 5.27,-0.31 5.27,-0.31 C5.27,-0.31 4.81,0.8 4.81,0.8 C3.92,2.7 2.48,2.97 1.15,2.61z"></path><g opacity="1" transform="matrix(0.2199999988079071,0,0,0.2199999988079071,0,0)"></g></g></g></g><g stroke-linecap="butt" stroke-linejoin="round" stroke-miterlimit="4" transform="matrix(1,0,0,1,25.26620101928711,-5.600067138671875)" opacity="1" style="display: inherit;"><g><g transform="matrix(1,0,0,1,0,0)" opacity="1" style="display: block;"><path d=" M5.56,0.38 C8.04,0.38 9.93,-0.93 9.93,-3.06 C9.93,-4.72 8.77,-5.78 6.51,-6.27 C6.51,-6.27 5.05,-6.65 5.05,-6.65 C4.03,-6.91 3.5,-7.4 3.5,-8.2 C3.5,-9.26 4.43,-9.95 5.67,-9.95 C7.16,-9.95 8.24,-8.93 8.37,-7.49 C8.37,-7.49 10.28,-7.56 10.28,-7.56 C10.15,-9.88 8.26,-11.45 5.65,-11.45 C3.21,-11.45 1.51,-10.08 1.51,-8 C1.51,-6.34 2.57,-5.25 4.63,-4.79 C4.63,-4.79 6.09,-4.43 6.09,-4.43 C7.33,-4.12 7.87,-3.61 7.87,-2.81 C7.87,-1.71 6.82,-1.11 5.56,-1.11 C3.97,-1.11 2.84,-2.08 2.7,-3.57 C2.7,-3.57 0.78,-3.52 0.78,-3.52 C0.89,-1.2 2.84,0.38 5.56,0.38z"></path><g opacity="1" transform="matrix(0.2199999988079071,0,0,0.2199999988079071,0,0)"></g></g></g></g></g><g transform="matrix(1,0,0,1,275,240)" opacity="1" style="display: block;"><g opacity="1" transform="matrix(1,0,0,1,0,0)"><path stroke-linecap="round" stroke-linejoin="round" fill-opacity="0" stroke="rgb(131,131,131)" stroke-opacity="1" stroke-width="3" d=" M210.125,-182.875 C210.125,-182.875 215,-178 215,-178 C215,-178 220,-183 220,-183"></path></g></g><g transform="matrix(1,0,0,1,275,240)" opacity="0.010783345572897219" style="display: none;"><g opacity="1" transform="matrix(1,0,0,1,0,0)"><path stroke-linecap="butt" stroke-linejoin="miter" fill-opacity="0" stroke-miterlimit="4" stroke="rgb(31,31,31)" stroke-opacity="1" stroke-width="4" d=" M285.84100341796875,8.774999618530273 C288.1610107421875,6.111000061035156 290,4 290,4"></path></g></g><g transform="matrix(1,0,0,1,275,240)" opacity="0.005503239369192557" style="display: none;"><g opacity="1" transform="matrix(1,0,0,1,0,0)"><path stroke="url(#__lottie_element_686)" stroke-linecap="round" stroke-linejoin="miter" fill-opacity="0" stroke-miterlimit="4" stroke-opacity="1" stroke-width="4" d=" M282.6390075683594,-24.80299949645996 C284.1029968261719,-25.545000076293945 285,-26 285,-26"></path></g></g><g transform="matrix(1,0,0,1,187.5,235)" opacity="1" style="display: block;"><g opacity="1" transform="matrix(1,0,0,1,0,0)"><path fill="rgb(196,196,196)" fill-opacity="1" d=" M35.91999816894531,30 C35.91999816894531,30 46.19200134277344,30 46.19200134277344,30 C46.19200134277344,30 46.19200134277344,2.2039999961853027 46.19200134277344,2.2039999961853027 C46.19200134277344,2.2039999961853027 60.694000244140625,-10.182999610900879 60.694000244140625,-10.182999610900879 C60.694000244140625,-10.182999610900879 87.73400115966797,30 87.73400115966797,30 C87.73400115966797,30 99.36599731445312,30 99.36599731445312,30 C99.36599731445312,30 67.94499969482422,-16.375999450683594 67.94499969482422,-16.375999450683594 C67.94499969482422,-16.375999450683594 101.33000183105469,-44.926998138427734 101.33000183105469,-44.926998138427734 C101.33000183105469,-44.926998138427734 88.79199981689453,-44.926998138427734 88.79199981689453,-44.926998138427734 C88.79199981689453,-44.926998138427734 46.19200134277344,-9.277000427246094 46.19200134277344,-9.277000427246094 C46.19200134277344,-9.277000427246094 46.19200134277344,-75.74400329589844 46.19200134277344,-75.74400329589844 C46.19200134277344,-75.74400329589844 35.91999816894531,-75.74400329589844 35.91999816894531,-75.74400329589844 C35.91999816894531,-75.74400329589844 35.91999816894531,30 35.91999816894531,30z"></path></g><g opacity="1" transform="matrix(1,0,0,1,0,0)"><path fill="rgb(196,196,196)" fill-opacity="1" d=" M-48.5260009765625,22.445999145507812 C-48.5260009765625,22.445999145507812 -48.5260009765625,30 -48.5260009765625,30 C-48.5260009765625,30 15.977999687194824,30 15.977999687194824,30 C15.977999687194824,30 15.977999687194824,21.540000915527344 15.977999687194824,21.540000915527344 C15.977999687194824,21.540000915527344 -35.534000396728516,21.540000915527344 -35.534000396728516,21.540000915527344 C0.7210000157356262,-6.558000087738037 18.093000411987305,-23.62700080871582 18.093000411987305,-45.53099822998047 C18.093000411987305,-65.01799774169922 4.195000171661377,-78.76499938964844 -15.895999908447266,-78.76499938964844 C-36.89400100708008,-78.76499938964844 -50.94300079345703,-63.05500030517578 -50.94300079345703,-41.1510009765625 C-50.94300079345703,-41.1510009765625 -40.51900100708008,-41.1510009765625 -40.51900100708008,-41.1510009765625 C-40.51900100708008,-57.768001556396484 -30.548999786376953,-69.70099639892578 -16.047000885009766,-69.70099639892578 C-2.299999952316284,-69.70099639892578 7.51800012588501,-59.42900085449219 7.51800012588501,-45.077999114990234 C7.51800012588501,-25.590999603271484 -9.70300006866455,-11.09000015258789 -48.5260009765625,22.445999145507812z"></path></g><g opacity="1" transform="matrix(1,0,0,1,0,0)"><path fill="rgb(196,196,196)" fill-opacity="1" d=" M-99.2959976196289,33.020999908447266 C-78.2979965209961,33.020999908447266 -63.494998931884766,18.518999099731445 -63.494998931884766,-2.4790000915527344 C-63.494998931884766,-25.13800048828125 -80.26200103759766,-36.61899948120117 -96.87899780273438,-36.61899948120117 C-106.5469970703125,-36.61899948120117 -116.06400299072266,-32.691001892089844 -121.35099792480469,-24.836000442504883 C-121.35099792480469,-24.836000442504883 -117.72599792480469,-67.13300323486328 -117.72599792480469,-67.13300323486328 C-117.72599792480469,-67.13300323486328 -65.91200256347656,-67.13300323486328 -65.91200256347656,-67.13300323486328 C-65.91200256347656,-67.13300323486328 -65.91200256347656,-75.74400329589844 -65.91200256347656,-75.74400329589844 C-65.91200256347656,-75.74400329589844 -126.94100189208984,-75.74400329589844 -126.94100189208984,-75.74400329589844 C-126.94100189208984,-75.74400329589844 -131.92599487304688,-17.886999130249023 -131.92599487304688,-17.886999130249023 C-131.92599487304688,-17.886999130249023 -121.95600128173828,-16.829999923706055 -121.95600128173828,-16.829999923706055 C-116.66899871826172,-24.534000396728516 -108.05699920654297,-28.461000442504883 -99.5979995727539,-28.461000442504883 C-86.15299987792969,-28.461000442504883 -73.76699829101562,-18.94499969482422 -73.76699829101562,-2.0260000228881836 C-73.76699829101562,15.345999717712402 -86.30500030517578,24.56100082397461 -99.1449966430664,24.56100082397461 C-111.68299865722656,24.56100082397461 -123.31600189208984,16.40399932861328 -124.37300109863281,0.6940000057220459 C-124.37300109863281,0.6940000057220459 -134.49400329589844,1.600000023841858 -134.49400329589844,1.600000023841858 C-133.58799743652344,19.878999710083008 -119.68900299072266,33.020999908447266 -99.2959976196289,33.020999908447266z"></path></g></g><g transform="matrix(1,0,0,1,205,367)" opacity="1" style="display: block;"><g opacity="1" transform="matrix(1,0,0,1,0,0)"><path fill="rgb(131,131,131)" fill-opacity="1" d=" M0.1940000057220459,9.079000473022461 C3.3519999980926514,9.079000473022461 5.749000072479248,7.415999889373779 5.749000072479248,4.709000110626221 C5.749000072479248,2.5940001010894775 4.2820000648498535,1.2400000095367432 1.406000018119812,0.6200000047683716 C1.406000018119812,0.6200000047683716 -0.45500001311302185,0.14000000059604645 -0.45500001311302185,0.14000000059604645 C-1.7519999742507935,-0.1979999989271164 -2.428999900817871,-0.8180000185966492 -2.428999900817871,-1.8329999446868896 C-2.428999900817871,-3.187000036239624 -1.24399995803833,-4.060999870300293 0.33500000834465027,-4.060999870300293 C2.2239999771118164,-4.060999870300293 3.6059999465942383,-2.7639999389648438 3.7750000953674316,-0.9309999942779541 C3.7750000953674316,-0.9309999942779541 6.199999809265137,-1.0160000324249268 6.199999809265137,-1.0160000324249268 C6.031000137329102,-3.9769999980926514 3.634000062942505,-5.979000091552734 0.3070000112056732,-5.979000091552734 C-2.7950000762939453,-5.979000091552734 -4.9670000076293945,-4.230999946594238 -4.9670000076293945,-1.5800000429153442 C-4.9670000076293945,0.5350000262260437 -3.61299991607666,1.9170000553131104 -0.9909999966621399,2.509000062942505 C-0.9909999966621399,2.509000062942505 0.8709999918937683,2.9600000381469727 0.8709999918937683,2.9600000381469727 C2.450000047683716,3.3550000190734863 3.125999927520752,4.004000186920166 3.125999927520752,5.019000053405762 C3.125999927520752,6.428999900817871 1.8009999990463257,7.190000057220459 0.1940000057220459,7.190000057220459 C-1.8359999656677246,7.190000057220459 -3.2750000953674316,5.948999881744385 -3.444000005722046,4.059999942779541 C-3.444000005722046,4.059999942779541 -5.896999835968018,4.116000175476074 -5.896999835968018,4.116000175476074 C-5.75600004196167,7.077000141143799 -3.2739999294281006,9.079000473022461 0.1940000057220459,9.079000473022461z"></path></g><g opacity="1" transform="matrix(1,0,0,1,0,0)"><path fill="rgb(131,131,131)" fill-opacity="1" d=" M-13.75,9.079000473022461 C-10.592000007629395,9.079000473022461 -8.194999694824219,7.415999889373779 -8.194999694824219,4.709000110626221 C-8.194999694824219,2.5940001010894775 -9.661999702453613,1.2400000095367432 -12.538000106811523,0.6200000047683716 C-12.538000106811523,0.6200000047683716 -14.39900016784668,0.14000000059604645 -14.39900016784668,0.14000000059604645 C-15.696000099182129,-0.1979999989271164 -16.37299919128418,-0.8180000185966492 -16.37299919128418,-1.8329999446868896 C-16.37299919128418,-3.187000036239624 -15.187999725341797,-4.060999870300293 -13.609000205993652,-4.060999870300293 C-11.720000267028809,-4.060999870300293 -10.338000297546387,-2.7639999389648438 -10.168999671936035,-0.9309999942779541 C-10.168999671936035,-0.9309999942779541 -7.74399995803833,-1.0160000324249268 -7.74399995803833,-1.0160000324249268 C-7.913000106811523,-3.9769999980926514 -10.3100004196167,-5.979000091552734 -13.63700008392334,-5.979000091552734 C-16.73900032043457,-5.979000091552734 -18.910999298095703,-4.230999946594238 -18.910999298095703,-1.5800000429153442 C-18.910999298095703,0.5350000262260437 -17.55699920654297,1.9170000553131104 -14.9350004196167,2.509000062942505 C-14.9350004196167,2.509000062942505 -13.072999954223633,2.9600000381469727 -13.072999954223633,2.9600000381469727 C-11.494000434875488,3.3550000190734863 -10.817999839782715,4.004000186920166 -10.817999839782715,5.019000053405762 C-10.817999839782715,6.428999900817871 -12.142999649047852,7.190000057220459 -13.75,7.190000057220459 C-15.779999732971191,7.190000057220459 -17.2189998626709,5.948999881744385 -17.38800048828125,4.059999942779541 C-17.38800048828125,4.059999942779541 -19.840999603271484,4.116000175476074 -19.840999603271484,4.116000175476074 C-19.700000762939453,7.077000141143799 -17.218000411987305,9.079000473022461 -13.75,9.079000473022461z"></path></g><g opacity="1" transform="matrix(1,0,0,1,0,0)"><path fill="rgb(131,131,131)" fill-opacity="1" d=" M-32.98099899291992,0.3100000023841858 C-32.755001068115234,-2.200000047683716 -31.006000518798828,-3.947999954223633 -28.666000366210938,-3.947999954223633 C-26.21299934387207,-3.947999954223633 -24.548999786376953,-2.0869998931884766 -24.548999786376953,0.3100000023841858 C-24.548999786376953,0.3100000023841858 -32.98099899291992,0.3100000023841858 -32.98099899291992,0.3100000023841858z M-28.63800048828125,9.079000473022461 C-25.367000579833984,9.079000473022461 -22.82900047302246,7.132999897003174 -22.208999633789062,4.539000034332275 C-22.208999633789062,4.539000034332275 -24.493000030517578,4.172999858856201 -24.493000030517578,4.172999858856201 C-25.02899932861328,5.864999771118164 -26.663999557495117,6.993000030517578 -28.610000610351562,6.993000030517578 C-31.1200008392334,6.993000030517578 -32.92399978637695,5.046999931335449 -33.00899887084961,2.312000036239624 C-33.00899887084961,2.312000036239624 -21.954999923706055,2.312000036239624 -21.954999923706055,2.312000036239624 C-21.44700050354004,-1.6080000400543213 -23.81599998474121,-5.979000091552734 -28.666000366210938,-5.979000091552734 C-32.755001068115234,-5.979000091552734 -35.715999603271484,-2.7929999828338623 -35.715999603271484,1.5499999523162842 C-35.715999603271484,5.921000003814697 -32.755001068115234,9.079000473022461 -28.63800048828125,9.079000473022461z"></path></g><g opacity="1" transform="matrix(1,0,0,1,0,0)"><path fill="rgb(131,131,131)" fill-opacity="1" d=" M-50.69200134277344,8.600000381469727 C-50.69200134277344,8.600000381469727 -48.01300048828125,8.600000381469727 -48.01300048828125,8.600000381469727 C-48.01300048828125,8.600000381469727 -48.01300048828125,1.3250000476837158 -48.01300048828125,1.3250000476837158 C-48.01300048828125,-1.8899999856948853 -46.71699905395508,-3.6659998893737793 -44.31999969482422,-3.6659998893737793 C-42.20500183105469,-3.6659998893737793 -41.02000045776367,-2.2279999256134033 -41.02000045776367,0.33799999952316284 C-41.02000045776367,0.33799999952316284 -41.02000045776367,8.600000381469727 -41.02000045776367,8.600000381469727 C-41.02000045776367,8.600000381469727 -38.340999603271484,8.600000381469727 -38.340999603271484,8.600000381469727 C-38.340999603271484,8.600000381469727 -38.340999603271484,-0.05700000002980232 -38.340999603271484,-0.05700000002980232 C-38.340999603271484,-3.609999895095825 -40.314998626708984,-5.8379998207092285 -43.41699981689453,-5.8379998207092285 C-45.89799880981445,-5.8379998207092285 -47.50600051879883,-4.427999973297119 -48.097999572753906,-2.0309998989105225 C-48.097999572753906,-2.0309998989105225 -48.01300048828125,-5.4710001945495605 -48.01300048828125,-5.4710001945495605 C-48.01300048828125,-5.4710001945495605 -50.69200134277344,-5.4710001945495605 -50.69200134277344,-5.4710001945495605 C-50.69200134277344,-5.4710001945495605 -50.69200134277344,8.600000381469727 -50.69200134277344,8.600000381469727z"></path></g><g opacity="1" transform="matrix(1,0,0,1,0,0)"><path fill="rgb(131,131,131)" fill-opacity="1" d=" M-61.27199935913086,8.600000381469727 C-61.27199935913086,8.600000381469727 -58.50899887084961,8.600000381469727 -58.50899887084961,8.600000381469727 C-58.50899887084961,8.600000381469727 -52.92499923706055,-5.4710001945495605 -52.92499923706055,-5.4710001945495605 C-52.92499923706055,-5.4710001945495605 -55.604000091552734,-5.4710001945495605 -55.604000091552734,-5.4710001945495605 C-55.604000091552734,-5.4710001945495605 -59.86199951171875,5.751999855041504 -59.86199951171875,5.751999855041504 C-59.86199951171875,5.751999855041504 -64.09200286865234,-5.4710001945495605 -64.09200286865234,-5.4710001945495605 C-64.09200286865234,-5.4710001945495605 -66.8550033569336,-5.4710001945495605 -66.8550033569336,-5.4710001945495605 C-66.8550033569336,-5.4710001945495605 -61.27199935913086,8.600000381469727 -61.27199935913086,8.600000381469727z"></path></g><g opacity="1" transform="matrix(1,0,0,1,0,0)"><path fill="rgb(131,131,131)" fill-opacity="1" d=" M-72.39600372314453,-9.78499984741211 C-72.39600372314453,-8.6850004196167 -71.5790023803711,-7.868000030517578 -70.47899627685547,-7.868000030517578 C-69.40699768066406,-7.868000030517578 -68.58999633789062,-8.6850004196167 -68.58999633789062,-9.78499984741211 C-68.58999633789062,-10.857000350952148 -69.40699768066406,-11.70300006866455 -70.47899627685547,-11.70300006866455 C-71.5790023803711,-11.70300006866455 -72.39600372314453,-10.857000350952148 -72.39600372314453,-9.78499984741211z M-71.83200073242188,8.600000381469727 C-71.83200073242188,8.600000381469727 -69.15299987792969,8.600000381469727 -69.15299987792969,8.600000381469727 C-69.15299987792969,8.600000381469727 -69.15299987792969,-5.4710001945495605 -69.15299987792969,-5.4710001945495605 C-69.15299987792969,-5.4710001945495605 -71.83200073242188,-5.4710001945495605 -71.83200073242188,-5.4710001945495605 C-71.83200073242188,-5.4710001945495605 -71.83200073242188,8.600000381469727 -71.83200073242188,8.600000381469727z"></path></g><g opacity="1" transform="matrix(1,0,0,1,0,0)"><path fill="rgb(131,131,131)" fill-opacity="1" d=" M-76.71900177001953,8.769000053405762 C-76.12699890136719,8.769000053405762 -75.53500366210938,8.656000137329102 -74.97100067138672,8.458999633789062 C-74.97100067138672,8.458999633789062 -75.0270004272461,6.230999946594238 -75.0270004272461,6.230999946594238 C-75.39399719238281,6.372000217437744 -75.78800201416016,6.456999778747559 -76.15499877929688,6.456999778747559 C-77.16999816894531,6.456999778747559 -78.01599884033203,5.835999965667725 -78.01599884033203,4.116000175476074 C-78.01599884033203,4.116000175476074 -78.01599884033203,-3.243000030517578 -78.01599884033203,-3.243000030517578 C-78.01599884033203,-3.243000030517578 -74.23799896240234,-3.243000030517578 -74.23799896240234,-3.243000030517578 C-74.23799896240234,-3.243000030517578 -74.23799896240234,-5.4710001945495605 -74.23799896240234,-5.4710001945495605 C-74.23799896240234,-5.4710001945495605 -78.01599884033203,-5.4710001945495605 -78.01599884033203,-5.4710001945495605 C-78.01599884033203,-5.4710001945495605 -78.01599884033203,-8.996000289916992 -78.01599884033203,-8.996000289916992 C-78.01599884033203,-8.996000289916992 -80.66699981689453,-8.996000289916992 -80.66699981689453,-8.996000289916992 C-80.66699981689453,-8.996000289916992 -80.66699981689453,-5.4710001945495605 -80.66699981689453,-5.4710001945495605 C-80.66699981689453,-5.4710001945495605 -83.31700134277344,-5.4710001945495605 -83.31700134277344,-5.4710001945495605 C-83.31700134277344,-5.4710001945495605 -83.31700134277344,-3.243000030517578 -83.31700134277344,-3.243000030517578 C-83.31700134277344,-3.243000030517578 -80.66699981689453,-3.243000030517578 -80.66699981689453,-3.243000030517578 C-80.66699981689453,-3.243000030517578 -80.66699981689453,4.285999774932861 -80.66699981689453,4.285999774932861 C-80.66699981689453,7.557000160217285 -78.7490005493164,8.769000053405762 -76.71900177001953,8.769000053405762z"></path></g><g opacity="1" transform="matrix(1,0,0,1,0,0)"><path fill="rgb(131,131,131)" fill-opacity="1" d=" M-91.46900177001953,9.02299976348877 C-87.83100128173828,9.02299976348877 -84.95500183105469,6.6539998054504395 -84.75800323486328,3.2139999866485596 C-84.75800323486328,3.2139999866485596 -87.38099670410156,3.0169999599456787 -87.38099670410156,3.0169999599456787 C-87.63500213623047,5.301000118255615 -89.46800231933594,6.6539998054504395 -91.49800109863281,6.6539998054504395 C-93.83799743652344,6.6539998054504395 -95.98100280761719,4.876999855041504 -95.98100280761719,1.5499999523162842 C-95.98100280761719,-1.4110000133514404 -94.09200286865234,-3.5820000171661377 -91.49800109863281,-3.5820000171661377 C-89.3550033569336,-3.5820000171661377 -87.63500213623047,-2.0869998931884766 -87.40899658203125,-0.028999999165534973 C-87.40899658203125,-0.028999999165534973 -84.78600311279297,-0.2540000081062317 -84.78600311279297,-0.2540000081062317 C-85.01200103759766,-3.5810000896453857 -87.88800048828125,-5.894000053405762 -91.46900177001953,-5.894000053405762 C-95.61399841308594,-5.894000053405762 -98.66000366210938,-2.7360000610351562 -98.66000366210938,1.5499999523162842 C-98.66000366210938,5.89300012588501 -95.64199829101562,9.02299976348877 -91.46900177001953,9.02299976348877z"></path></g><g opacity="1" transform="matrix(1,0,0,1,0,0)"><path fill="rgb(131,131,131)" fill-opacity="1" d=" M-111.96900177001953,0.3100000023841858 C-111.74299621582031,-2.200000047683716 -109.99400329589844,-3.947999954223633 -107.65399932861328,-3.947999954223633 C-105.20099639892578,-3.947999954223633 -103.53700256347656,-2.0869998931884766 -103.53700256347656,0.3100000023841858 C-103.53700256347656,0.3100000023841858 -111.96900177001953,0.3100000023841858 -111.96900177001953,0.3100000023841858z M-107.6259994506836,9.079000473022461 C-104.3550033569336,9.079000473022461 -101.81700134277344,7.132999897003174 -101.1969985961914,4.539000034332275 C-101.1969985961914,4.539000034332275 -103.48100280761719,4.172999858856201 -103.48100280761719,4.172999858856201 C-104.01699829101562,5.864999771118164 -105.6520004272461,6.993000030517578 -107.5979995727539,6.993000030517578 C-110.10800170898438,6.993000030517578 -111.91200256347656,5.046999931335449 -111.99700164794922,2.312000036239624 C-111.99700164794922,2.312000036239624 -100.94300079345703,2.312000036239624 -100.94300079345703,2.312000036239624 C-100.43499755859375,-1.6080000400543213 -102.80400085449219,-5.979000091552734 -107.65399932861328,-5.979000091552734 C-111.74299621582031,-5.979000091552734 -114.7040023803711,-2.7929999828338623 -114.7040023803711,1.5499999523162842 C-114.7040023803711,5.921000003814697 -111.74299621582031,9.079000473022461 -107.6259994506836,9.079000473022461z"></path></g><g opacity="1" transform="matrix(1,0,0,1,0,0)"><path fill="rgb(131,131,131)" fill-opacity="1" d=" M-121.8280029296875,-7.078000068664551 C-121.8280029296875,-7.078000068664551 -121.8280029296875,-5.4710001945495605 -121.8280029296875,-5.4710001945495605 C-121.8280029296875,-5.4710001945495605 -124.44999694824219,-5.4710001945495605 -124.44999694824219,-5.4710001945495605 C-124.44999694824219,-5.4710001945495605 -124.44999694824219,-3.243000030517578 -124.44999694824219,-3.243000030517578 C-124.44999694824219,-3.243000030517578 -121.8280029296875,-3.243000030517578 -121.8280029296875,-3.243000030517578 C-121.8280029296875,-3.243000030517578 -121.8280029296875,8.600000381469727 -121.8280029296875,8.600000381469727 C-121.8280029296875,8.600000381469727 -119.14900207519531,8.600000381469727 -119.14900207519531,8.600000381469727 C-119.14900207519531,8.600000381469727 -119.14900207519531,-3.243000030517578 -119.14900207519531,-3.243000030517578 C-119.14900207519531,-3.243000030517578 -115.87799835205078,-3.243000030517578 -115.87799835205078,-3.243000030517578 C-115.87799835205078,-3.243000030517578 -115.87799835205078,-5.4710001945495605 -115.87799835205078,-5.4710001945495605 C-115.87799835205078,-5.4710001945495605 -119.14900207519531,-5.4710001945495605 -119.14900207519531,-5.4710001945495605 C-119.14900207519531,-5.4710001945495605 -119.14900207519531,-7.078000068664551 -119.14900207519531,-7.078000068664551 C-119.14900207519531,-9.305999755859375 -117.54199981689453,-9.644000053405762 -115.99099731445312,-9.164999961853027 C-115.99099731445312,-9.164999961853027 -115.99099731445312,-11.307999610900879 -115.99099731445312,-11.307999610900879 C-118.697998046875,-11.871999740600586 -121.8280029296875,-10.800000190734863 -121.8280029296875,-7.078000068664551z"></path></g><g opacity="1" transform="matrix(1,0,0,1,0,0)"><path fill="rgb(131,131,131)" fill-opacity="1" d=" M-131.93600463867188,-7.078000068664551 C-131.93600463867188,-7.078000068664551 -131.93600463867188,-5.4710001945495605 -131.93600463867188,-5.4710001945495605 C-131.93600463867188,-5.4710001945495605 -134.55799865722656,-5.4710001945495605 -134.55799865722656,-5.4710001945495605 C-134.55799865722656,-5.4710001945495605 -134.55799865722656,-3.243000030517578 -134.55799865722656,-3.243000030517578 C-134.55799865722656,-3.243000030517578 -131.93600463867188,-3.243000030517578 -131.93600463867188,-3.243000030517578 C-131.93600463867188,-3.243000030517578 -131.93600463867188,8.600000381469727 -131.93600463867188,8.600000381469727 C-131.93600463867188,8.600000381469727 -129.2570037841797,8.600000381469727 -129.2570037841797,8.600000381469727 C-129.2570037841797,8.600000381469727 -129.2570037841797,-3.243000030517578 -129.2570037841797,-3.243000030517578 C-129.2570037841797,-3.243000030517578 -125.98600006103516,-3.243000030517578 -125.98600006103516,-3.243000030517578 C-125.98600006103516,-3.243000030517578 -125.98600006103516,-5.4710001945495605 -125.98600006103516,-5.4710001945495605 C-125.98600006103516,-5.4710001945495605 -129.2570037841797,-5.4710001945495605 -129.2570037841797,-5.4710001945495605 C-129.2570037841797,-5.4710001945495605 -129.2570037841797,-7.078000068664551 -129.2570037841797,-7.078000068664551 C-129.2570037841797,-9.305999755859375 -127.6500015258789,-9.644000053405762 -126.0989990234375,-9.164999961853027 C-126.0989990234375,-9.164999961853027 -126.0989990234375,-11.307999610900879 -126.0989990234375,-11.307999610900879 C-128.80599975585938,-11.871999740600586 -131.93600463867188,-10.800000190734863 -131.93600463867188,-7.078000068664551z"></path></g><g opacity="1" transform="matrix(1,0,0,1,0,0)"><path fill="rgb(131,131,131)" fill-opacity="1" d=" M-147.10899353027344,0.3100000023841858 C-146.88299560546875,-2.200000047683716 -145.13400268554688,-3.947999954223633 -142.79400634765625,-3.947999954223633 C-140.34100341796875,-3.947999954223633 -138.677001953125,-2.0869998931884766 -138.677001953125,0.3100000023841858 C-138.677001953125,0.3100000023841858 -147.10899353027344,0.3100000023841858 -147.10899353027344,0.3100000023841858z M-142.76600646972656,9.079000473022461 C-139.4949951171875,9.079000473022461 -136.95700073242188,7.132999897003174 -136.33700561523438,4.539000034332275 C-136.33700561523438,4.539000034332275 -138.62100219726562,4.172999858856201 -138.62100219726562,4.172999858856201 C-139.15699768066406,5.864999771118164 -140.79200744628906,6.993000030517578 -142.73800659179688,6.993000030517578 C-145.2480010986328,6.993000030517578 -147.052001953125,5.046999931335449 -147.13699340820312,2.312000036239624 C-147.13699340820312,2.312000036239624 -136.08299255371094,2.312000036239624 -136.08299255371094,2.312000036239624 C-135.5749969482422,-1.6080000400543213 -137.94400024414062,-5.979000091552734 -142.79400634765625,-5.979000091552734 C-146.88299560546875,-5.979000091552734 -149.843994140625,-2.7929999828338623 -149.843994140625,1.5499999523162842 C-149.843994140625,5.921000003814697 -146.88299560546875,9.079000473022461 -142.76600646972656,9.079000473022461z"></path></g><g opacity="1" transform="matrix(1,0,0,1,0,0)"><path fill="rgb(131,131,131)" fill-opacity="1" d=" M94.7959976196289,-30.399999618530273 C94.7959976196289,-30.399999618530273 97.4749984741211,-30.399999618530273 97.4749984741211,-30.399999618530273 C97.4749984741211,-30.399999618530273 97.4749984741211,-37.67499923706055 97.4749984741211,-37.67499923706055 C97.4749984741211,-40.88999938964844 98.77200317382812,-42.66600036621094 101.16899871826172,-42.66600036621094 C103.28399658203125,-42.66600036621094 104.46800231933594,-41.22800064086914 104.46800231933594,-38.6619987487793 C104.46800231933594,-38.6619987487793 104.46800231933594,-30.399999618530273 104.46800231933594,-30.399999618530273 C104.46800231933594,-30.399999618530273 107.14700317382812,-30.399999618530273 107.14700317382812,-30.399999618530273 C107.14700317382812,-30.399999618530273 107.14700317382812,-39.05699920654297 107.14700317382812,-39.05699920654297 C107.14700317382812,-42.61000061035156 105.1729965209961,-44.8380012512207 102.07099914550781,-44.8380012512207 C99.58999633789062,-44.8380012512207 97.98200225830078,-43.428001403808594 97.38999938964844,-41.03099822998047 C97.38999938964844,-41.03099822998047 97.4749984741211,-44.47100067138672 97.4749984741211,-44.47100067138672 C97.4749984741211,-44.47100067138672 94.7959976196289,-44.47100067138672 94.7959976196289,-44.47100067138672 C94.7959976196289,-44.47100067138672 94.7959976196289,-30.399999618530273 94.7959976196289,-30.399999618530273z"></path></g><g opacity="1" transform="matrix(1,0,0,1,0,0)"><path fill="rgb(131,131,131)" fill-opacity="1" d=" M79.41100311279297,-37.590999603271484 C79.41100311279297,-40.52399826049805 81.5260009765625,-42.63800048828125 84.26100158691406,-42.63800048828125 C87.0530014038086,-42.63800048828125 89.08300018310547,-40.354000091552734 89.08300018310547,-37.590999603271484 C89.08300018310547,-34.74300003051758 86.99600219726562,-32.542999267578125 84.26100158691406,-32.542999267578125 C81.46900177001953,-32.542999267578125 79.41100311279297,-34.770999908447266 79.41100311279297,-37.590999603271484z M84.48699951171875,-24.590999603271484 C88.04000091552734,-24.590999603271484 91.59300231933594,-26.621999740600586 91.59300231933594,-31.5 C91.59300231933594,-31.5 91.59300231933594,-44.47100067138672 91.59300231933594,-44.47100067138672 C91.59300231933594,-44.47100067138672 89.05500030517578,-44.47100067138672 89.05500030517578,-44.47100067138672 C89.05500030517578,-44.47100067138672 89.05500030517578,-41.595001220703125 89.05500030517578,-41.595001220703125 C88.23699951171875,-43.569000244140625 86.17900085449219,-44.89400100708008 83.75399780273438,-44.89400100708008 C79.72200012207031,-44.89400100708008 76.7040023803711,-41.70800018310547 76.7040023803711,-37.590999603271484 C76.7040023803711,-33.388999938964844 79.83399963378906,-30.28700065612793 83.75399780273438,-30.28700065612793 C86.23500061035156,-30.28700065612793 88.18099975585938,-31.697999954223633 88.94200134277344,-33.4739990234375 C88.94200134277344,-33.4739990234375 88.94200134277344,-31.07699966430664 88.94200134277344,-31.07699966430664 C88.94200134277344,-28.115999221801758 86.8550033569336,-26.70599937438965 84.57099914550781,-26.70599937438965 C82.65399932861328,-26.70599937438965 80.79299926757812,-27.69300079345703 80.31400299072266,-29.243999481201172 C80.31400299072266,-29.243999481201172 77.69100189208984,-29.047000885009766 77.69100189208984,-29.047000885009766 C78.22699737548828,-26.368000030517578 81.18800354003906,-24.590999603271484 84.48699951171875,-24.590999603271484z"></path></g><g opacity="1" transform="matrix(1,0,0,1,0,0)"><path fill="rgb(131,131,131)" fill-opacity="1" d=" M70.68399810791016,-48.78499984741211 C70.68399810791016,-47.685001373291016 71.5009994506836,-46.86800003051758 72.60099792480469,-46.86800003051758 C73.6729965209961,-46.86800003051758 74.49099731445312,-47.685001373291016 74.49099731445312,-48.78499984741211 C74.49099731445312,-49.856998443603516 73.6729965209961,-50.702999114990234 72.60099792480469,-50.702999114990234 C71.5009994506836,-50.702999114990234 70.68399810791016,-49.856998443603516 70.68399810791016,-48.78499984741211z M71.24800109863281,-30.399999618530273 C71.24800109863281,-30.399999618530273 73.927001953125,-30.399999618530273 73.927001953125,-30.399999618530273 C73.927001953125,-30.399999618530273 73.927001953125,-44.47100067138672 73.927001953125,-44.47100067138672 C73.927001953125,-44.47100067138672 71.24800109863281,-44.47100067138672 71.24800109863281,-44.47100067138672 C71.24800109863281,-44.47100067138672 71.24800109863281,-30.399999618530273 71.24800109863281,-30.399999618530273z"></path></g><g opacity="1" transform="matrix(1,0,0,1,0,0)"><path fill="rgb(131,131,131)" fill-opacity="1" d=" M58.887001037597656,-34.150001525878906 C58.887001037597656,-35.67300033569336 60.26900100708008,-36.604000091552734 63.17300033569336,-36.94200134277344 C63.17300033569336,-36.94200134277344 65.48600006103516,-37.19599914550781 65.48600006103516,-37.19599914550781 C65.48600006103516,-37.19599914550781 65.48600006103516,-36.09600067138672 65.48600006103516,-36.09600067138672 C65.48600006103516,-33.2760009765625 63.37099838256836,-31.92300033569336 61.5099983215332,-31.92300033569336 C60.12799835205078,-31.92300033569336 58.887001037597656,-32.654998779296875 58.887001037597656,-34.150001525878906z M60.69200134277344,-30.09000015258789 C62.77899932861328,-30.09000015258789 64.97899627685547,-31.218000411987305 65.5989990234375,-33.30500030517578 C65.5989990234375,-31.839000701904297 65.71099853515625,-31.020000457763672 65.85199737548828,-30.399999618530273 C65.85199737548828,-30.399999618530273 68.4749984741211,-30.399999618530273 68.4749984741211,-30.399999618530273 C68.27799987792969,-31.386999130249023 68.10800170898438,-32.909000396728516 68.10800170898438,-34.43199920654297 C68.10800170898438,-34.43199920654297 68.10800170898438,-39.22600173950195 68.10800170898438,-39.22600173950195 C68.10800170898438,-43.06100082397461 65.14800262451172,-44.95000076293945 62.1870002746582,-44.89400100708008 C59.28300094604492,-44.86600112915039 56.349998474121094,-43.17399978637695 56.09600067138672,-39.70600128173828 C56.09600067138672,-39.70600128173828 58.6619987487793,-39.676998138427734 58.6619987487793,-39.676998138427734 C58.88800048828125,-41.763999938964844 60.52299880981445,-42.77899932861328 62.130001068115234,-42.77899932861328 C63.821998596191406,-42.77899932861328 65.45800018310547,-41.67900085449219 65.45800018310547,-39.367000579833984 C65.45800018310547,-39.367000579833984 65.45800018310547,-38.86000061035156 65.45800018310547,-38.86000061035156 C65.45800018310547,-38.86000061035156 62.891998291015625,-38.60599899291992 62.891998291015625,-38.60599899291992 C58.380001068115234,-38.154998779296875 56.23699951171875,-36.547000885009766 56.23699951171875,-33.98099899291992 C56.23699951171875,-31.527999877929688 58.23899841308594,-30.09000015258789 60.69200134277344,-30.09000015258789z"></path></g><g opacity="1" transform="matrix(1,0,0,1,0,0)"><path fill="rgb(131,131,131)" fill-opacity="1" d=" M42.3129997253418,-37.42100143432617 C42.3129997253418,-40.52299880981445 44.14699935913086,-42.63800048828125 46.76900100708008,-42.63800048828125 C49.362998962402344,-42.63800048828125 51.25199890136719,-40.4379997253418 51.25199890136719,-37.42100143432617 C51.25199890136719,-34.40399932861328 49.362998962402344,-32.233001708984375 46.76900100708008,-32.233001708984375 C44.14699935913086,-32.233001708984375 42.3129997253418,-34.34700012207031 42.3129997253418,-37.42100143432617z M39.80400085449219,-25.04199981689453 C39.80400085449219,-25.04199981689453 42.483001708984375,-25.04199981689453 42.483001708984375,-25.04199981689453 C42.483001708984375,-25.04199981689453 42.483001708984375,-32.76900100708008 42.483001708984375,-32.76900100708008 C43.5260009765625,-31.020999908447266 45.27399826049805,-30.034000396728516 47.44499969482422,-30.034000396728516 C51.2239990234375,-30.034000396728516 53.95899963378906,-33.106998443603516 53.95899963378906,-37.42100143432617 C53.95899963378906,-41.763999938964844 51.2239990234375,-44.8380012512207 47.44499969482422,-44.8380012512207 C45.27399826049805,-44.8380012512207 43.5260009765625,-43.849998474121094 42.483001708984375,-42.10200119018555 C42.483001708984375,-42.10200119018555 42.483001708984375,-44.47100067138672 42.483001708984375,-44.47100067138672 C42.483001708984375,-44.47100067138672 39.80400085449219,-44.47100067138672 39.80400085449219,-44.47100067138672 C39.80400085449219,-44.47100067138672 39.80400085449219,-25.04199981689453 39.80400085449219,-25.04199981689453z"></path></g><g opacity="1" transform="matrix(1,0,0,1,0,0)"><path fill="rgb(131,131,131)" fill-opacity="1" d=" M15.079999923706055,-30.399999618530273 C15.079999923706055,-30.399999618530273 17.759000778198242,-30.399999618530273 17.759000778198242,-30.399999618530273 C17.759000778198242,-30.399999618530273 17.759000778198242,-37.67499923706055 17.759000778198242,-37.67499923706055 C17.759000778198242,-40.88999938964844 19.05500030517578,-42.66600036621094 21.423999786376953,-42.66600036621094 C23.51099967956543,-42.66600036621094 24.69499969482422,-41.22800064086914 24.69499969482422,-38.6619987487793 C24.69499969482422,-38.6619987487793 24.69499969482422,-30.399999618530273 24.69499969482422,-30.399999618530273 C24.69499969482422,-30.399999618530273 27.34600067138672,-30.399999618530273 27.34600067138672,-30.399999618530273 C27.34600067138672,-30.399999618530273 27.34600067138672,-37.67499923706055 27.34600067138672,-37.67499923706055 C27.34600067138672,-40.88999938964844 28.64299964904785,-42.66600036621094 30.927000045776367,-42.66600036621094 C32.957000732421875,-42.66600036621094 34.084999084472656,-41.22800064086914 34.084999084472656,-38.6619987487793 C34.084999084472656,-38.6619987487793 34.084999084472656,-30.399999618530273 34.084999084472656,-30.399999618530273 C34.084999084472656,-30.399999618530273 36.763999938964844,-30.399999618530273 36.763999938964844,-30.399999618530273 C36.763999938964844,-30.399999618530273 36.763999938964844,-39.198001861572266 36.763999938964844,-39.198001861572266 C36.763999938964844,-42.66600036621094 34.84600067138672,-44.8380012512207 31.82900047302246,-44.8380012512207 C29.347999572753906,-44.8380012512207 27.68400001525879,-43.48400115966797 27.091999053955078,-41.14400100708008 C26.472000122070312,-43.45600128173828 24.75200080871582,-44.8380012512207 22.354999542236328,-44.8380012512207 C19.844999313354492,-44.8380012512207 18.238000869750977,-43.39899826049805 17.673999786376953,-40.9739990234375 C17.673999786376953,-40.9739990234375 17.759000778198242,-44.47100067138672 17.759000778198242,-44.47100067138672 C17.759000778198242,-44.47100067138672 15.079999923706055,-44.47100067138672 15.079999923706055,-44.47100067138672 C15.079999923706055,-44.47100067138672 15.079999923706055,-30.399999618530273 15.079999923706055,-30.399999618530273z"></path></g><g opacity="1" transform="matrix(1,0,0,1,0,0)"><path fill="rgb(131,131,131)" fill-opacity="1" d=" M2.7190001010894775,-34.150001525878906 C2.7190001010894775,-35.67300033569336 4.10099983215332,-36.604000091552734 7.005000114440918,-36.94200134277344 C7.005000114440918,-36.94200134277344 9.317999839782715,-37.19599914550781 9.317999839782715,-37.19599914550781 C9.317999839782715,-37.19599914550781 9.317999839782715,-36.09600067138672 9.317999839782715,-36.09600067138672 C9.317999839782715,-33.2760009765625 7.203000068664551,-31.92300033569336 5.3420000076293945,-31.92300033569336 C3.9600000381469727,-31.92300033569336 2.7190001010894775,-32.654998779296875 2.7190001010894775,-34.150001525878906z M4.52400016784668,-30.09000015258789 C6.611000061035156,-30.09000015258789 8.810999870300293,-31.218000411987305 9.430999755859375,-33.30500030517578 C9.430999755859375,-31.839000701904297 9.543000221252441,-31.020000457763672 9.684000015258789,-30.399999618530273 C9.684000015258789,-30.399999618530273 12.307000160217285,-30.399999618530273 12.307000160217285,-30.399999618530273 C12.109999656677246,-31.386999130249023 11.9399995803833,-32.909000396728516 11.9399995803833,-34.43199920654297 C11.9399995803833,-34.43199920654297 11.9399995803833,-39.22600173950195 11.9399995803833,-39.22600173950195 C11.9399995803833,-43.06100082397461 8.979999542236328,-44.95000076293945 6.019000053405762,-44.89400100708008 C3.115000009536743,-44.86600112915039 0.18199999630451202,-43.17399978637695 -0.07199999690055847,-39.70600128173828 C-0.07199999690055847,-39.70600128173828 2.49399995803833,-39.676998138427734 2.49399995803833,-39.676998138427734 C2.7200000286102295,-41.763999938964844 4.355000019073486,-42.77899932861328 5.961999893188477,-42.77899932861328 C7.6539998054504395,-42.77899932861328 9.289999961853027,-41.67900085449219 9.289999961853027,-39.367000579833984 C9.289999961853027,-39.367000579833984 9.289999961853027,-38.86000061035156 9.289999961853027,-38.86000061035156 C9.289999961853027,-38.86000061035156 6.723999977111816,-38.60599899291992 6.723999977111816,-38.60599899291992 C2.2119998931884766,-38.154998779296875 0.0689999982714653,-36.547000885009766 0.0689999982714653,-33.98099899291992 C0.0689999982714653,-31.527999877929688 2.071000099182129,-30.09000015258789 4.52400016784668,-30.09000015258789z"></path></g><g opacity="1" transform="matrix(1,0,0,1,0,0)"><path fill="rgb(131,131,131)" fill-opacity="1" d=" M-8.869000434875488,-29.976999282836914 C-5.230999946594238,-29.976999282836914 -2.3550000190734863,-32.34600067138672 -2.1579999923706055,-35.7859992980957 C-2.1579999923706055,-35.7859992980957 -4.781000137329102,-35.983001708984375 -4.781000137329102,-35.983001708984375 C-5.034999847412109,-33.69900131225586 -6.868000030517578,-32.34600067138672 -8.89799976348877,-32.34600067138672 C-11.23799991607666,-32.34600067138672 -13.380999565124512,-34.12300109863281 -13.380999565124512,-37.45000076293945 C-13.380999565124512,-40.4109992980957 -11.491999626159668,-42.582000732421875 -8.89799976348877,-42.582000732421875 C-6.755000114440918,-42.582000732421875 -5.034999847412109,-41.08700180053711 -4.809000015258789,-39.02899932861328 C-4.809000015258789,-39.02899932861328 -2.186000108718872,-39.25400161743164 -2.186000108718872,-39.25400161743164 C-2.4119999408721924,-42.58100128173828 -5.288000106811523,-44.89400100708008 -8.869000434875488,-44.89400100708008 C-13.013999938964844,-44.89400100708008 -16.059999465942383,-41.736000061035156 -16.059999465942383,-37.45000076293945 C-16.059999465942383,-33.106998443603516 -13.041999816894531,-29.976999282836914 -8.869000434875488,-29.976999282836914z"></path></g><g opacity="1" transform="matrix(1,0,0,1,0,0)"><path fill="rgb(131,131,131)" fill-opacity="1" d=" M-36.564998626708984,-37.590999603271484 C-36.564998626708984,-40.52399826049805 -34.45000076293945,-42.63800048828125 -31.71500015258789,-42.63800048828125 C-28.92300033569336,-42.63800048828125 -26.89299964904785,-40.354000091552734 -26.89299964904785,-37.590999603271484 C-26.89299964904785,-34.74300003051758 -28.979999542236328,-32.542999267578125 -31.71500015258789,-32.542999267578125 C-34.50699996948242,-32.542999267578125 -36.564998626708984,-34.770999908447266 -36.564998626708984,-37.590999603271484z M-31.48900032043457,-24.590999603271484 C-27.93600082397461,-24.590999603271484 -24.382999420166016,-26.621999740600586 -24.382999420166016,-31.5 C-24.382999420166016,-31.5 -24.382999420166016,-44.47100067138672 -24.382999420166016,-44.47100067138672 C-24.382999420166016,-44.47100067138672 -26.92099952697754,-44.47100067138672 -26.92099952697754,-44.47100067138672 C-26.92099952697754,-44.47100067138672 -26.92099952697754,-41.595001220703125 -26.92099952697754,-41.595001220703125 C-27.73900032043457,-43.569000244140625 -29.797000885009766,-44.89400100708008 -32.22200012207031,-44.89400100708008 C-36.25400161743164,-44.89400100708008 -39.27199935913086,-41.70800018310547 -39.27199935913086,-37.590999603271484 C-39.27199935913086,-33.388999938964844 -36.141998291015625,-30.28700065612793 -32.22200012207031,-30.28700065612793 C-29.740999221801758,-30.28700065612793 -27.795000076293945,-31.697999954223633 -27.034000396728516,-33.4739990234375 C-27.034000396728516,-33.4739990234375 -27.034000396728516,-31.07699966430664 -27.034000396728516,-31.07699966430664 C-27.034000396728516,-28.115999221801758 -29.121000289916992,-26.70599937438965 -31.405000686645508,-26.70599937438965 C-33.321998596191406,-26.70599937438965 -35.18299865722656,-27.69300079345703 -35.6619987487793,-29.243999481201172 C-35.6619987487793,-29.243999481201172 -38.28499984741211,-29.047000885009766 -38.28499984741211,-29.047000885009766 C-37.749000549316406,-26.368000030517578 -34.78799819946289,-24.590999603271484 -31.48900032043457,-24.590999603271484z"></path></g><g opacity="1" transform="matrix(1,0,0,1,0,0)"><path fill="rgb(131,131,131)" fill-opacity="1" d=" M-54.220001220703125,-30.399999618530273 C-54.220001220703125,-30.399999618530273 -51.54100036621094,-30.399999618530273 -51.54100036621094,-30.399999618530273 C-51.54100036621094,-30.399999618530273 -51.54100036621094,-37.67499923706055 -51.54100036621094,-37.67499923706055 C-51.54100036621094,-40.88999938964844 -50.244998931884766,-42.66600036621094 -47.847999572753906,-42.66600036621094 C-45.733001708984375,-42.66600036621094 -44.54800033569336,-41.22800064086914 -44.54800033569336,-38.6619987487793 C-44.54800033569336,-38.6619987487793 -44.54800033569336,-30.399999618530273 -44.54800033569336,-30.399999618530273 C-44.54800033569336,-30.399999618530273 -41.86899948120117,-30.399999618530273 -41.86899948120117,-30.399999618530273 C-41.86899948120117,-30.399999618530273 -41.86899948120117,-39.05699920654297 -41.86899948120117,-39.05699920654297 C-41.86899948120117,-42.61000061035156 -43.84299850463867,-44.8380012512207 -46.94499969482422,-44.8380012512207 C-49.42599868774414,-44.8380012512207 -51.034000396728516,-43.428001403808594 -51.625999450683594,-41.03099822998047 C-51.625999450683594,-41.03099822998047 -51.54100036621094,-44.47100067138672 -51.54100036621094,-44.47100067138672 C-51.54100036621094,-44.47100067138672 -54.220001220703125,-44.47100067138672 -54.220001220703125,-44.47100067138672 C-54.220001220703125,-44.47100067138672 -54.220001220703125,-30.399999618530273 -54.220001220703125,-30.399999618530273z"></path></g><g opacity="1" transform="matrix(1,0,0,1,0,0)"><path fill="rgb(131,131,131)" fill-opacity="1" d=" M-60.74800109863281,-48.78499984741211 C-60.74800109863281,-47.685001373291016 -59.930999755859375,-46.86800003051758 -58.83100128173828,-46.86800003051758 C-57.75899887084961,-46.86800003051758 -56.941001892089844,-47.685001373291016 -56.941001892089844,-48.78499984741211 C-56.941001892089844,-49.856998443603516 -57.75899887084961,-50.702999114990234 -58.83100128173828,-50.702999114990234 C-59.930999755859375,-50.702999114990234 -60.74800109863281,-49.856998443603516 -60.74800109863281,-48.78499984741211z M-60.183998107910156,-30.399999618530273 C-60.183998107910156,-30.399999618530273 -57.505001068115234,-30.399999618530273 -57.505001068115234,-30.399999618530273 C-57.505001068115234,-30.399999618530273 -57.505001068115234,-44.47100067138672 -57.505001068115234,-44.47100067138672 C-57.505001068115234,-44.47100067138672 -60.183998107910156,-44.47100067138672 -60.183998107910156,-44.47100067138672 C-60.183998107910156,-44.47100067138672 -60.183998107910156,-30.399999618530273 -60.183998107910156,-30.399999618530273z"></path></g><g opacity="1" transform="matrix(1,0,0,1,0,0)"><path fill="rgb(131,131,131)" fill-opacity="1" d=" M-65.07099914550781,-30.231000900268555 C-64.47899627685547,-30.231000900268555 -63.887001037597656,-30.3439998626709 -63.323001861572266,-30.541000366210938 C-63.323001861572266,-30.541000366210938 -63.37900161743164,-32.76900100708008 -63.37900161743164,-32.76900100708008 C-63.74599838256836,-32.62799835205078 -64.13999938964844,-32.542999267578125 -64.50700378417969,-32.542999267578125 C-65.52200317382812,-32.542999267578125 -66.36799621582031,-33.16400146484375 -66.36799621582031,-34.88399887084961 C-66.36799621582031,-34.88399887084961 -66.36799621582031,-42.24300003051758 -66.36799621582031,-42.24300003051758 C-66.36799621582031,-42.24300003051758 -62.59000015258789,-42.24300003051758 -62.59000015258789,-42.24300003051758 C-62.59000015258789,-42.24300003051758 -62.59000015258789,-44.47100067138672 -62.59000015258789,-44.47100067138672 C-62.59000015258789,-44.47100067138672 -66.36799621582031,-44.47100067138672 -66.36799621582031,-44.47100067138672 C-66.36799621582031,-44.47100067138672 -66.36799621582031,-47.99599838256836 -66.36799621582031,-47.99599838256836 C-66.36799621582031,-47.99599838256836 -69.01899719238281,-47.99599838256836 -69.01899719238281,-47.99599838256836 C-69.01899719238281,-47.99599838256836 -69.01899719238281,-44.47100067138672 -69.01899719238281,-44.47100067138672 C-69.01899719238281,-44.47100067138672 -71.66899871826172,-44.47100067138672 -71.66899871826172,-44.47100067138672 C-71.66899871826172,-44.47100067138672 -71.66899871826172,-42.24300003051758 -71.66899871826172,-42.24300003051758 C-71.66899871826172,-42.24300003051758 -69.01899719238281,-42.24300003051758 -69.01899719238281,-42.24300003051758 C-69.01899719238281,-42.24300003051758 -69.01899719238281,-34.7140007019043 -69.01899719238281,-34.7140007019043 C-69.01899719238281,-31.44300079345703 -67.10099792480469,-30.231000900268555 -65.07099914550781,-30.231000900268555z"></path></g><g opacity="1" transform="matrix(1,0,0,1,0,0)"><path fill="rgb(131,131,131)" fill-opacity="1" d=" M-84.2490005493164,-38.689998626708984 C-84.02300262451172,-41.20000076293945 -82.27400207519531,-42.948001861572266 -79.93399810791016,-42.948001861572266 C-77.48100280761719,-42.948001861572266 -75.81700134277344,-41.08700180053711 -75.81700134277344,-38.689998626708984 C-75.81700134277344,-38.689998626708984 -84.2490005493164,-38.689998626708984 -84.2490005493164,-38.689998626708984z M-79.90599822998047,-29.92099952697754 C-76.63500213623047,-29.92099952697754 -74.09700012207031,-31.867000579833984 -73.47699737548828,-34.46099853515625 C-73.47699737548828,-34.46099853515625 -75.76100158691406,-34.82699966430664 -75.76100158691406,-34.82699966430664 C-76.2969970703125,-33.1349983215332 -77.93199920654297,-32.00699996948242 -79.87799835205078,-32.00699996948242 C-82.38800048828125,-32.00699996948242 -84.19200134277344,-33.952999114990234 -84.2770004272461,-36.6879997253418 C-84.2770004272461,-36.6879997253418 -73.2229995727539,-36.6879997253418 -73.2229995727539,-36.6879997253418 C-72.71499633789062,-40.608001708984375 -75.08399963378906,-44.979000091552734 -79.93399810791016,-44.979000091552734 C-84.02300262451172,-44.979000091552734 -86.98400115966797,-41.792999267578125 -86.98400115966797,-37.45000076293945 C-86.98400115966797,-33.07899856567383 -84.02300262451172,-29.92099952697754 -79.90599822998047,-29.92099952697754z"></path></g><g opacity="1" transform="matrix(1,0,0,1,0,0)"><path fill="rgb(131,131,131)" fill-opacity="1" d=" M-100.50399780273438,-30.399999618530273 C-100.50399780273438,-30.399999618530273 -97.85399627685547,-30.399999618530273 -97.85399627685547,-30.399999618530273 C-97.85399627685547,-30.399999618530273 -97.85399627685547,-35.30699920654297 -97.85399627685547,-35.30699920654297 C-97.85399627685547,-35.30699920654297 -95.4000015258789,-37.45000076293945 -95.4000015258789,-37.45000076293945 C-95.4000015258789,-37.45000076293945 -90.88899993896484,-30.399999618530273 -90.88899993896484,-30.399999618530273 C-90.88899993896484,-30.399999618530273 -87.9000015258789,-30.399999618530273 -87.9000015258789,-30.399999618530273 C-87.9000015258789,-30.399999618530273 -93.53900146484375,-39.112998962402344 -93.53900146484375,-39.112998962402344 C-93.53900146484375,-39.112998962402344 -87.47699737548828,-44.47100067138672 -87.47699737548828,-44.47100067138672 C-87.47699737548828,-44.47100067138672 -90.66300201416016,-44.47100067138672 -90.66300201416016,-44.47100067138672 C-90.66300201416016,-44.47100067138672 -97.85399627685547,-38.266998291015625 -97.85399627685547,-38.266998291015625 C-97.85399627685547,-38.266998291015625 -97.85399627685547,-50.138999938964844 -97.85399627685547,-50.138999938964844 C-97.85399627685547,-50.138999938964844 -100.50399780273438,-50.138999938964844 -100.50399780273438,-50.138999938964844 C-100.50399780273438,-50.138999938964844 -100.50399780273438,-30.399999618530273 -100.50399780273438,-30.399999618530273z"></path></g><g opacity="1" transform="matrix(1,0,0,1,0,0)"><path fill="rgb(131,131,131)" fill-opacity="1" d=" M-110.86399841308594,-30.399999618530273 C-110.86399841308594,-30.399999618530273 -108.18499755859375,-30.399999618530273 -108.18499755859375,-30.399999618530273 C-108.18499755859375,-30.399999618530273 -108.18499755859375,-36.4630012512207 -108.18499755859375,-36.4630012512207 C-108.18499755859375,-40.551998138427734 -105.78900146484375,-42.29999923706055 -102.8280029296875,-41.904998779296875 C-102.8280029296875,-41.904998779296875 -102.8280029296875,-44.527000427246094 -102.8280029296875,-44.527000427246094 C-105.25299835205078,-44.97800064086914 -107.6780014038086,-43.73699951171875 -108.2699966430664,-40.26900100708008 C-108.2699966430664,-40.26900100708008 -108.18499755859375,-44.47100067138672 -108.18499755859375,-44.47100067138672 C-108.18499755859375,-44.47100067138672 -110.86399841308594,-44.47100067138672 -110.86399841308594,-44.47100067138672 C-110.86399841308594,-44.47100067138672 -110.86399841308594,-30.399999618530273 -110.86399841308594,-30.399999618530273z"></path></g><g opacity="1" transform="matrix(1,0,0,1,0,0)"><path fill="rgb(131,131,131)" fill-opacity="1" d=" M-123.2249984741211,-34.150001525878906 C-123.2249984741211,-35.67300033569336 -121.84300231933594,-36.604000091552734 -118.93900299072266,-36.94200134277344 C-118.93900299072266,-36.94200134277344 -116.6259994506836,-37.19599914550781 -116.6259994506836,-37.19599914550781 C-116.6259994506836,-37.19599914550781 -116.6259994506836,-36.09600067138672 -116.6259994506836,-36.09600067138672 C-116.6259994506836,-33.2760009765625 -118.74099731445312,-31.92300033569336 -120.60199737548828,-31.92300033569336 C-121.98400115966797,-31.92300033569336 -123.2249984741211,-32.654998779296875 -123.2249984741211,-34.150001525878906z M-121.41999816894531,-30.09000015258789 C-119.33300018310547,-30.09000015258789 -117.13300323486328,-31.218000411987305 -116.51300048828125,-33.30500030517578 C-116.51300048828125,-31.839000701904297 -116.4010009765625,-31.020000457763672 -116.26000213623047,-30.399999618530273 C-116.26000213623047,-30.399999618530273 -113.63700103759766,-30.399999618530273 -113.63700103759766,-30.399999618530273 C-113.83399963378906,-31.386999130249023 -114.00399780273438,-32.909000396728516 -114.00399780273438,-34.43199920654297 C-114.00399780273438,-34.43199920654297 -114.00399780273438,-39.22600173950195 -114.00399780273438,-39.22600173950195 C-114.00399780273438,-43.06100082397461 -116.96399688720703,-44.95000076293945 -119.92500305175781,-44.89400100708008 C-122.8290023803711,-44.86600112915039 -125.76200103759766,-43.17399978637695 -126.01599884033203,-39.70600128173828 C-126.01599884033203,-39.70600128173828 -123.44999694824219,-39.676998138427734 -123.44999694824219,-39.676998138427734 C-123.2239990234375,-41.763999938964844 -121.58899688720703,-42.77899932861328 -119.98200225830078,-42.77899932861328 C-118.29000091552734,-42.77899932861328 -116.65399932861328,-41.67900085449219 -116.65399932861328,-39.367000579833984 C-116.65399932861328,-39.367000579833984 -116.65399932861328,-38.86000061035156 -116.65399932861328,-38.86000061035156 C-116.65399932861328,-38.86000061035156 -119.22000122070312,-38.60599899291992 -119.22000122070312,-38.60599899291992 C-123.73200225830078,-38.154998779296875 -125.875,-36.547000885009766 -125.875,-33.98099899291992 C-125.875,-31.527999877929688 -123.87300109863281,-30.09000015258789 -121.41999816894531,-30.09000015258789z"></path></g><g opacity="1" transform="matrix(1,0,0,1,0,0)"><path fill="rgb(131,131,131)" fill-opacity="1" d=" M-149.11099243164062,-30.399999618530273 C-149.11099243164062,-30.399999618530273 -146.4040069580078,-30.399999618530273 -146.4040069580078,-30.399999618530273 C-146.4040069580078,-30.399999618530273 -146.5449981689453,-47.09299850463867 -146.5449981689453,-47.09299850463867 C-146.5449981689453,-47.09299850463867 -140.45399475097656,-30.399999618530273 -140.45399475097656,-30.399999618530273 C-140.45399475097656,-30.399999618530273 -137.52099609375,-30.399999618530273 -137.52099609375,-30.399999618530273 C-137.52099609375,-30.399999618530273 -131.37399291992188,-47.09299850463867 -131.37399291992188,-47.09299850463867 C-131.37399291992188,-47.09299850463867 -131.54299926757812,-30.399999618530273 -131.54299926757812,-30.399999618530273 C-131.54299926757812,-30.399999618530273 -128.80799865722656,-30.399999618530273 -128.80799865722656,-30.399999618530273 C-128.80799865722656,-30.399999618530273 -128.80799865722656,-50.138999938964844 -128.80799865722656,-50.138999938964844 C-128.80799865722656,-50.138999938964844 -133.00999450683594,-50.138999938964844 -133.00999450683594,-50.138999938964844 C-133.00999450683594,-50.138999938964844 -138.95899963378906,-33.24800109863281 -138.95899963378906,-33.24800109863281 C-138.95899963378906,-33.24800109863281 -144.90899658203125,-50.138999938964844 -144.90899658203125,-50.138999938964844 C-144.90899658203125,-50.138999938964844 -149.11099243164062,-50.138999938964844 -149.11099243164062,-50.138999938964844 C-149.11099243164062,-50.138999938964844 -149.11099243164062,-30.399999618530273 -149.11099243164062,-30.399999618530273z"></path></g></g><g transform="matrix(1,0,0,1,275,208.5)" opacity="1" style="display: block;"><g opacity="1" transform="matrix(1,0,0,1,-192.6479949951172,-106.4209976196289)"><path fill="rgb(165,148,253)" fill-opacity="1" d=" M28.851499557495117,0 C28.851499557495117,0 28.851499557495117,0 28.851499557495117,0 C28.851499557495117,7.12144136428833 23.069440841674805,12.903499603271484 15.947999954223633,12.903499603271484 C15.947999954223633,12.903499603271484 -15.947999954223633,12.903499603271484 -15.947999954223633,12.903499603271484 C-23.069440841674805,12.903499603271484 -28.851499557495117,7.12144136428833 -28.851499557495117,0 C-28.851499557495117,0 -28.851499557495117,0 -28.851499557495117,0 C-28.851499557495117,-7.12144136428833 -23.069440841674805,-12.903499603271484 -15.947999954223633,-12.903499603271484 C-15.947999954223633,-12.903499603271484 15.947999954223633,-12.903499603271484 15.947999954223633,-12.903499603271484 C23.069440841674805,-12.903499603271484 28.851499557495117,-7.12144136428833 28.851499557495117,0z"></path><path stroke-linecap="butt" stroke-linejoin="miter" fill-opacity="0" stroke-miterlimit="4" stroke="rgb(131,131,131)" stroke-opacity="1" stroke-width="0" d=" M28.851499557495117,0 C28.851499557495117,0 28.851499557495117,0 28.851499557495117,0 C28.851499557495117,7.12144136428833 23.069440841674805,12.903499603271484 15.947999954223633,12.903499603271484 C15.947999954223633,12.903499603271484 -15.947999954223633,12.903499603271484 -15.947999954223633,12.903499603271484 C-23.069440841674805,12.903499603271484 -28.851499557495117,7.12144136428833 -28.851499557495117,0 C-28.851499557495117,0 -28.851499557495117,0 -28.851499557495117,0 C-28.851499557495117,-7.12144136428833 -23.069440841674805,-12.903499603271484 -15.947999954223633,-12.903499603271484 C-15.947999954223633,-12.903499603271484 15.947999954223633,-12.903499603271484 15.947999954223633,-12.903499603271484 C23.069440841674805,-12.903499603271484 28.851499557495117,-7.12144136428833 28.851499557495117,0z"></path></g></g><g fill="rgb(16,16,16)" font-size="16" font-family="Labil Grotesk Trial" font-style="normal" font-weight="500" aria-label="MAU" transform="matrix(1,0,0,1,140.75,111.5)" opacity="1" style="display: block;"><g stroke-linecap="butt" stroke-linejoin="round" stroke-miterlimit="4" transform="matrix(1,0,0,1,-76.52760314941406,-3.800048828125)" opacity="1" style="display: inherit;"><g><g transform="matrix(1,0,0,1,0,0)" opacity="1" style="display: block;"><path d=" M1.18,0 C1.18,0 2.66,0 2.66,0 C2.66,0 2.66,-6.77 2.66,-6.77 C2.66,-7.04 2.66,-7.47 2.64,-8.04 C2.62,-8.62 2.62,-9.05 2.62,-9.33 C2.62,-9.33 2.62,-9.68 2.62,-9.68 C2.62,-9.68 5.93,0 5.93,0 C5.93,0 7.47,0 7.47,0 C7.47,0 10.74,-9.68 10.74,-9.68 C10.74,-9.06 10.74,-8.48 10.73,-7.94 C10.72,-7.4 10.71,-7.01 10.71,-6.77 C10.71,-6.77 10.71,0 10.71,0 C10.71,0 12.2,0 12.2,0 C12.2,0 12.2,-11.48 12.2,-11.48 C12.2,-11.48 9.98,-11.48 9.98,-11.48 C9.98,-11.48 6.71,-1.77 6.71,-1.77 C6.71,-1.77 3.41,-11.48 3.41,-11.48 C3.41,-11.48 1.18,-11.48 1.18,-11.48 C1.18,-11.48 1.18,0 1.18,0z"></path><g opacity="1" transform="matrix(0.1599999964237213,0,0,0.1599999964237213,0,0)"></g></g></g></g><g stroke-linecap="butt" stroke-linejoin="round" stroke-miterlimit="4" transform="matrix(1,0,0,1,-64.22039794921875,-3.800048828125)" opacity="1" style="display: inherit;"><g><g transform="matrix(1,0,0,1,0,0)" opacity="1" style="display: block;"><path d=" M4.04,-4.56 C4.04,-4.56 5.83,-9.43 5.83,-9.43 C5.83,-9.43 7.61,-4.56 7.61,-4.56 C7.61,-4.56 4.04,-4.56 4.04,-4.56z M0.34,0 C0.34,0 2.37,0 2.37,0 C2.37,0 3.45,-2.92 3.45,-2.92 C3.45,-2.92 8.2,-2.92 8.2,-2.92 C8.2,-2.92 9.27,0 9.27,0 C9.27,0 11.42,0 11.42,0 C11.42,0 7.2,-11.28 7.2,-11.28 C7.2,-11.28 4.56,-11.28 4.56,-11.28 C4.56,-11.28 0.34,0 0.34,0z"></path><g opacity="1" transform="matrix(0.1599999964237213,0,0,0.1599999964237213,0,0)"></g></g></g></g><g stroke-linecap="butt" stroke-linejoin="round" stroke-miterlimit="4" transform="matrix(1,0,0,1,-52.28439712524414,-3.800048828125)" opacity="1" style="display: inherit;"><g><g transform="matrix(1,0,0,1,0,0)" opacity="1" style="display: block;"><path d=" M5.61,0.23 C8.49,0.23 10.41,-1.63 10.41,-4.4 C10.41,-4.4 10.41,-11.28 10.41,-11.28 C10.41,-11.28 8.3,-11.28 8.3,-11.28 C8.3,-11.28 8.3,-4.46 8.3,-4.46 C8.3,-2.72 7.27,-1.64 5.61,-1.64 C3.95,-1.64 2.93,-2.72 2.93,-4.46 C2.93,-4.46 2.93,-11.28 2.93,-11.28 C2.93,-11.28 0.82,-11.28 0.82,-11.28 C0.82,-11.28 0.82,-4.4 0.82,-4.4 C0.82,-1.63 2.74,0.23 5.61,0.23z"></path><g opacity="1" transform="matrix(0.1599999964237213,0,0,0.1599999964237213,0,0)"></g></g></g></g></g><g fill="rgb(196,196,196)" font-size="16" font-family="Labil Grotesk Trial" font-style="normal" font-weight="500" aria-label="JAN 2023" transform="matrix(1,0,0,1,193.75,111.5)" opacity="1" style="display: block;"><g stroke-linecap="butt" stroke-linejoin="round" stroke-miterlimit="4" transform="matrix(1,0,0,1,-75.25,-3.800048828125)" opacity="1" style="display: inherit;"><g><g transform="matrix(1,0,0,1,0,0)" opacity="1" style="display: block;"><path d=" M4.3,0.24 C6.67,0.24 8.27,-1.34 8.27,-3.82 C8.27,-3.82 8.27,-11.28 8.27,-11.28 C8.27,-11.28 6.16,-11.28 6.16,-11.28 C6.16,-11.28 6.16,-3.82 6.16,-3.82 C6.16,-2.43 5.46,-1.64 4.32,-1.64 C3.14,-1.64 2.45,-2.47 2.45,-3.84 C2.45,-3.84 0.45,-3.69 0.45,-3.69 C0.45,-1.32 1.98,0.24 4.3,0.24z"></path><g opacity="1" transform="matrix(0.1599999964237213,0,0,0.1599999964237213,0,0)"></g></g></g></g><g stroke-linecap="butt" stroke-linejoin="round" stroke-miterlimit="4" transform="matrix(1,0,0,1,-66.19400024414062,-3.800048828125)" opacity="1" style="display: inherit;"><g><g transform="matrix(1,0,0,1,0,0)" opacity="1" style="display: block;"><path d=" M4.04,-4.56 C4.04,-4.56 5.83,-9.43 5.83,-9.43 C5.83,-9.43 7.61,-4.56 7.61,-4.56 C7.61,-4.56 4.04,-4.56 4.04,-4.56z M0.34,0 C0.34,0 2.37,0 2.37,0 C2.37,0 3.45,-2.92 3.45,-2.92 C3.45,-2.92 8.2,-2.92 8.2,-2.92 C8.2,-2.92 9.27,0 9.27,0 C9.27,0 11.42,0 11.42,0 C11.42,0 7.2,-11.28 7.2,-11.28 C7.2,-11.28 4.56,-11.28 4.56,-11.28 C4.56,-11.28 0.34,0 0.34,0z"></path><g opacity="1" transform="matrix(0.1599999964237213,0,0,0.1599999964237213,0,0)"></g></g></g></g><g stroke-linecap="butt" stroke-linejoin="round" stroke-miterlimit="4" transform="matrix(1,0,0,1,-54.257999420166016,-3.800048828125)" opacity="1" style="display: inherit;"><g><g transform="matrix(1,0,0,1,0,0)" opacity="1" style="display: block;"><path d=" M0.93,0 C0.93,0 2.98,0 2.98,0 C2.98,0 2.9,-8.02 2.9,-8.02 C2.9,-8.02 8.41,0 8.41,0 C8.41,0 10.52,0 10.52,0 C10.52,0 10.52,-11.28 10.52,-11.28 C10.52,-11.28 8.46,-11.28 8.46,-11.28 C8.46,-11.28 8.54,-3.25 8.54,-3.25 C8.54,-3.25 3.03,-11.28 3.03,-11.28 C3.03,-11.28 0.93,-11.28 0.93,-11.28 C0.93,-11.28 0.93,0 0.93,0z"></path><g opacity="1" transform="matrix(0.1599999964237213,0,0,0.1599999964237213,0,0)"></g></g></g></g><g stroke-linecap="butt" stroke-linejoin="round" stroke-miterlimit="4" transform="matrix(1,0,0,1,-42.89799880981445,-3.800048828125)" opacity="1" style="display: inherit;"><g><g style="display: none;"></g></g></g><g stroke-linecap="butt" stroke-linejoin="round" stroke-miterlimit="4" transform="matrix(1,0,0,1,-39.874000549316406,-3.800048828125)" opacity="1" style="display: inherit;"><g><g transform="matrix(1,0,0,1,0,0)" opacity="1" style="display: block;"><path d=" M0.85,-1.45 C0.85,-1.45 0.85,0 0.85,0 C0.85,0 8.23,0 8.23,0 C8.23,0 8.23,-1.61 8.23,-1.61 C8.23,-1.61 3.48,-1.61 3.48,-1.61 C7.09,-4.12 8.52,-5.93 8.52,-7.98 C8.52,-10.12 7.01,-11.6 4.64,-11.6 C2.14,-11.6 0.58,-9.88 0.58,-7.43 C0.58,-7.43 2.59,-7.43 2.59,-7.43 C2.59,-8.85 3.38,-9.83 4.59,-9.83 C5.72,-9.83 6.51,-9.02 6.51,-7.88 C6.51,-6.32 5.09,-4.96 0.85,-1.45z"></path><g opacity="1" transform="matrix(0.1599999964237213,0,0,0.1599999964237213,0,0)"></g></g></g></g><g stroke-linecap="butt" stroke-linejoin="round" stroke-miterlimit="4" transform="matrix(1,0,0,1,-30.70600128173828,-3.800048828125)" opacity="1" style="display: inherit;"><g><g transform="matrix(1,0,0,1,0,0)" opacity="1" style="display: block;"><path d=" M2.79,-5.64 C2.79,-8.06 3.74,-9.72 5.12,-9.72 C6.53,-9.72 7.48,-8.06 7.48,-5.64 C7.48,-3.22 6.53,-1.56 5.12,-1.56 C3.74,-1.56 2.79,-3.22 2.79,-5.64z M5.12,0.21 C7.72,0.21 9.49,-2.16 9.49,-5.64 C9.49,-9.12 7.72,-11.49 5.12,-11.49 C2.53,-11.49 0.77,-9.12 0.77,-5.64 C0.77,-2.16 2.53,0.21 5.12,0.21z"></path><g opacity="1" transform="matrix(0.1599999964237213,0,0,0.1599999964237213,0,0)"></g></g></g></g><g stroke-linecap="butt" stroke-linejoin="round" stroke-miterlimit="4" transform="matrix(1,0,0,1,-20.513999938964844,-3.800048828125)" opacity="1" style="display: inherit;"><g><g transform="matrix(1,0,0,1,0,0)" opacity="1" style="display: block;"><path d=" M0.85,-1.45 C0.85,-1.45 0.85,0 0.85,0 C0.85,0 8.23,0 8.23,0 C8.23,0 8.23,-1.61 8.23,-1.61 C8.23,-1.61 3.48,-1.61 3.48,-1.61 C7.09,-4.12 8.52,-5.93 8.52,-7.98 C8.52,-10.12 7.01,-11.6 4.64,-11.6 C2.14,-11.6 0.58,-9.88 0.58,-7.43 C0.58,-7.43 2.59,-7.43 2.59,-7.43 C2.59,-8.85 3.38,-9.83 4.59,-9.83 C5.72,-9.83 6.51,-9.02 6.51,-7.88 C6.51,-6.32 5.09,-4.96 0.85,-1.45z"></path><g opacity="1" transform="matrix(0.1599999964237213,0,0,0.1599999964237213,0,0)"></g></g></g></g><g stroke-linecap="butt" stroke-linejoin="round" stroke-miterlimit="4" transform="matrix(1,0,0,1,-11.345999717712402,-3.800048828125)" opacity="1" style="display: inherit;"><g><g transform="matrix(1,0,0,1,0,0)" opacity="1" style="display: block;"><path d=" M4.79,0.32 C7.07,0.32 8.73,-1.05 8.73,-2.93 C8.73,-4.42 7.72,-5.48 6.24,-5.66 C7.73,-5.87 8.73,-6.96 8.73,-8.44 C8.73,-10.36 7.17,-11.6 4.91,-11.6 C2.38,-11.6 0.84,-9.96 0.73,-7.73 C0.73,-7.73 2.76,-7.67 2.76,-7.67 C2.76,-8.99 3.54,-9.91 4.83,-9.91 C5.96,-9.91 6.72,-9.2 6.72,-8.17 C6.72,-7.07 5.82,-6.32 4.24,-6.32 C4.24,-6.32 4.24,-4.95 4.24,-4.95 C5.83,-4.95 6.72,-4.21 6.72,-3.11 C6.72,-2.09 5.93,-1.37 4.79,-1.37 C3.5,-1.37 2.72,-2.24 2.72,-3.58 C2.72,-3.58 0.66,-3.53 0.66,-3.53 C0.66,-1.22 2.29,0.32 4.79,0.32z"></path><g opacity="1" transform="matrix(0.1599999964237213,0,0,0.1599999964237213,0,0)"></g></g></g></g></g></g></svg>